<svg width="30" height="30" viewBox="0 0 17 20" fill="none" xmlns="http://www.w3.org/2000/svg">
<path d="M2.04734 2.43604C1.48087 3.25464 0.642812 4.69015 0.236182 6.66114C-0.103891 8.30951 -0.0139021 9.71039 0.118431 10.6273C1.00677 11.2754 1.73132 11.4063 2.21905 11.4113C3.35677 11.423 4.64687 10.7644 5.8806 10.7345C6.13578 10.7284 6.39865 10.7363 6.39865 10.7363C6.935 10.7524 7.38191 10.8101 7.70581 10.8643C7.42093 10.7839 2.9152 9.43774 1.986 5.53837C1.69471 4.31601 1.84396 3.21661 2.04734 2.43604Z" fill="#CECECE"/>
<path d="M0.211121 11.1888C0.415292 12.157 0.871877 13.6445 1.98041 15.1141C4.31426 18.2084 7.76849 18.8778 8.67849 19.025C8.5261 18.1568 8.40409 16.9144 8.57907 15.4419C8.75488 13.9621 9.16787 12.778 9.52135 11.968C7.92582 11.1403 6.67483 11.0534 5.81396 11.1355C4.19489 11.29 3.028 12.1306 1.32302 11.6675C0.828523 11.5332 0.449159 11.3327 0.211141 11.1888L0.211121 11.1888Z" fill="#CECECE"/>
<path d="M2.57916 15.8312C3.32659 15.8072 4.37966 15.6795 5.53786 15.2119C7.76207 14.3141 9.01207 12.7129 9.52138 11.9679C9.33633 12.3909 9.16318 12.8523 9.01408 13.3517C8.3506 15.5738 8.44888 17.5913 8.67852 19.0249C7.19508 18.7652 5.14604 18.1455 3.33696 16.5675C3.06021 16.326 2.80837 16.0791 2.57916 15.8312Z" fill="#D0D0D0"/>
<path d="M2.04741 2.43604C1.61704 3.05757 1.13011 3.89032 0.738045 4.93166C0.152076 6.48799 0.0154325 7.87951 0.00115967 8.83261C0.239817 8.59057 0.480413 8.43831 0.691927 8.3396C2.36527 7.55851 4.37291 9.12135 4.52403 9.24225C4.06202 8.90401 2.33681 7.55709 1.91132 5.17718C1.70352 4.0149 1.88234 3.03496 2.04743 2.43606L2.04741 2.43604Z" fill="white"/>
<path d="M0.211141 11.1884C0.686434 11.7273 1.71189 12.7298 3.328 13.2053C6.50089 14.1388 9.17486 12.2243 9.52132 11.9676C9.08231 12.6253 8.09439 13.913 6.34499 14.8351C4.7897 15.6549 3.35438 15.8053 2.57911 15.8309C2.13347 15.3438 1.57995 14.6399 1.09789 13.7037C0.599415 12.7357 0.346424 11.8477 0.211121 11.1884H0.211141Z" fill="#969696"/>
<path d="M8.09415 5.72205e-06C7.91022 0.332447 7.66857 0.866151 7.56907 1.56218C7.49202 2.10133 7.52539 2.5621 7.57586 2.89266C7.91657 2.76932 8.29344 2.64941 8.70426 2.54265C9.15113 2.42653 9.57096 2.34345 9.95548 2.28394C9.83185 1.96274 9.62588 1.53149 9.2803 1.08534C8.86427 0.548148 8.41257 0.204569 8.09413 5.72205e-06L8.09415 5.72205e-06Z" fill="#CECECE"/>
<path d="M16.2331 0.28669C15.923 0.453921 15.4849 0.735561 15.0569 1.18903C14.6217 1.65005 14.3638 2.11186 14.215 2.43421C14.5817 2.51797 14.9801 2.62603 15.4021 2.76636C15.8217 2.90594 16.2036 3.05714 16.546 3.20882C16.6249 2.86842 16.705 2.34222 16.6346 1.70597C16.566 1.0852 16.3806 0.599103 16.2331 0.28669H16.2331Z" fill="#CECECE"/>
<path d="M7.55363 3.35672C7.5019 3.90204 7.48251 4.57472 7.55959 5.33792C7.6417 6.15141 7.81085 6.84453 7.98386 7.39005C8.44636 6.29556 9.01878 5.61135 9.47978 5.17871C9.90027 4.78409 10.3657 4.46967 10.5563 3.84249C10.7028 3.36077 10.6239 2.90296 10.5276 2.58015C10.1342 2.62097 9.69391 2.68986 9.21959 2.80305C8.5737 2.95719 8.01552 3.15746 7.55363 3.35672Z" fill="#7C7C7C"/>
<path d="M10.9238 2.54277C10.9858 2.751 11.0604 3.09574 11.0214 3.51986C11.0065 3.68146 10.9703 4.03851 10.7677 4.42154C10.5118 4.90554 10.2406 4.95778 9.62169 5.67165C9.46291 5.85478 9.34228 6.01108 9.26819 6.11009C10.169 6.56222 11.0699 7.01437 11.9707 7.46652C12.4068 7.23502 14.4073 6.11671 14.7559 4.03145C14.8063 3.73045 14.8291 3.36785 14.7812 2.95146C14.2115 2.78504 13.5059 2.62915 12.6887 2.5564C12.0266 2.49748 11.4312 2.50558 10.9238 2.54281L10.9238 2.54277Z" fill="white"/>
<path d="M16.5635 3.62032C16.5991 3.9228 16.6199 4.25018 16.6171 4.59943C16.6069 5.88374 16.2818 6.94871 15.9604 7.70732C15.959 7.64691 15.9298 6.94599 15.3152 6.54617C14.729 6.16476 14.1094 6.38226 14.0432 6.4068C14.2904 6.13009 14.6125 5.70331 14.8575 5.11816C15.2157 4.26276 15.2308 3.49471 15.2063 3.06364C15.6587 3.24921 16.1111 3.43478 16.5635 3.62034V3.62032Z" fill="#CECECE"/>
<path d="M8.08716 7.81174C8.71712 8.95859 9.34708 10.1054 9.97707 11.2523C10.3884 11.4109 11.0174 11.5991 11.8032 11.6317C12.6323 11.6662 13.3053 11.5137 13.737 11.3802C14.4408 10.2754 15.1446 9.17058 15.8485 8.0658C15.6192 8.12778 15.3186 8.19729 14.9622 8.24836C14.6616 8.29144 14.2934 8.32539 13.8101 8.32323C12.8487 8.31889 12.7985 8.17769 11.9026 8.14787C11.0962 8.12105 11.0921 8.23392 10.1761 8.189C9.63052 8.16224 9.21964 8.102 8.85123 8.02164C8.53976 7.95368 8.28019 7.87605 8.08718 7.81176L8.08716 7.81174Z" fill="white"/>
<path d="M9.96507 11.9477C10.4952 12.5846 11.0253 13.2215 11.5554 13.8584C11.0639 14.5545 10.524 15.4335 10.0364 16.4958C9.58798 17.4727 9.28722 18.3795 9.08162 19.1548C8.86734 17.8127 8.75675 15.874 9.3481 13.6953C9.52346 13.0493 9.73772 12.4661 9.96505 11.9477L9.96507 11.9477Z" fill="white"/>
<path d="M13.3453 12.3599C12.6739 13.0569 11.8742 14.0181 11.1425 15.2697C10.3008 16.7093 9.83095 18.0507 9.55896 19.0692C10.558 19.236 11.3783 19.2173 11.9413 19.1679C12.8684 19.0866 13.2477 18.9088 13.5214 18.7131C13.6378 18.6299 13.996 18.3737 14.198 17.9546C14.6322 17.0534 13.9516 16.2137 13.573 14.492C13.4649 14.0005 13.346 13.2759 13.3453 12.3599H13.3453Z" fill="#D0D0D0"/>
<path d="M11.5469 7.90866C11.3157 7.75463 11.0012 7.55328 10.6171 7.33129C10.4112 7.21232 10.2495 7.12444 10.073 7.02874C9.81257 6.88749 9.47202 6.70719 9.0657 6.50384C9.0095 6.61641 8.91685 6.83972 8.91835 7.13424C8.91967 7.39259 8.99285 7.59224 9.04326 7.70327C9.35712 7.69156 9.69802 7.69281 10.062 7.71437C10.6138 7.74706 11.1119 7.82007 11.547 7.90868L11.5469 7.90866Z" fill="white"/>
<path d="M12.3286 7.93566C12.7704 7.68403 13.2552 7.43094 13.7826 7.1869C14.1626 7.01109 14.531 6.85553 14.8847 6.71769C14.9334 6.83393 15.0161 7.07635 14.9827 7.38511C14.9565 7.62626 14.8704 7.80748 14.8111 7.91079C14.4979 7.87511 14.1545 7.85085 13.7848 7.84666C13.2447 7.84052 12.7555 7.87841 12.3286 7.93566Z" fill="white"/>
<path d="M10.463 11.8532C10.8193 11.9444 11.2775 12.0286 11.814 12.0469C12.3569 12.0655 12.8245 12.0114 13.1887 11.9434C12.7138 12.4502 12.2389 12.9569 11.764 13.4637C11.3303 12.9269 10.8966 12.39 10.463 11.8532Z" fill="white"/>
<path d="M12.3187 7.93725C12.5604 7.80027 12.8886 7.62207 13.2877 7.42829C13.5016 7.32442 13.6692 7.2484 13.8521 7.16567C14.122 7.04349 14.4747 6.88818 14.8946 6.71459C14.9426 6.83092 15.0189 7.0603 14.9962 7.35394C14.9763 7.61155 14.8889 7.80539 14.8307 7.9125C14.5185 7.87824 14.1784 7.85497 13.8138 7.85029C13.2611 7.84322 12.759 7.8802 12.3187 7.93727L12.3187 7.93725Z" fill="white"/>
<path d="M7.98388 7.39001C7.73091 6.53709 7.52426 5.48591 7.51294 4.2807C7.50989 3.95643 7.52123 3.64628 7.54322 3.35163C7.99459 3.16076 8.53487 2.96936 9.15636 2.81838C9.65516 2.6972 10.117 2.62374 10.5277 2.58015C10.4425 2.76327 10.2957 3.0446 10.0611 3.34792C9.38192 4.22584 8.71052 4.32738 8.27087 4.84437C7.94422 5.22852 7.6607 5.94181 7.9839 7.39003L7.98388 7.39001Z" fill="#969696"/>
<path d="M14.0942 5.63232C13.7032 5.54371 13.0361 5.33614 12.3806 4.81074C11.3613 3.99381 11.0267 2.93504 10.9236 2.54279C11.4517 2.50403 12.0819 2.4964 12.7874 2.56568C13.5643 2.64196 14.2361 2.79221 14.781 2.95144C14.813 3.23446 14.8243 3.6075 14.7522 4.03471C14.6265 4.78038 14.3086 5.32531 14.0942 5.6323V5.63232Z" fill="#969696"/>
<path d="M15.2062 3.06364C15.6586 3.24921 16.111 3.43478 16.5634 3.62034C16.6159 4.07738 16.64 4.6319 16.5833 5.25677C16.4897 6.2882 16.2112 7.12341 15.9603 7.70734C16.0357 7.50327 16.6179 5.85538 15.7163 4.71209C15.5871 4.5483 15.4015 4.36199 15.1336 4.19513C15.1569 4.07074 15.1768 3.93688 15.1909 3.79428C15.2176 3.52526 15.2185 3.27945 15.2062 3.06366L15.2062 3.06364Z" fill="#969696"/>
<path d="M14.215 2.43421C14.359 2.12279 14.5942 1.70331 14.9739 1.27929C15.4273 0.773038 15.9032 0.464956 16.2331 0.28669C16.3729 0.58349 16.5304 1.0014 16.6098 1.5198C16.7193 2.23575 16.6323 2.8328 16.546 3.2088C16.4942 2.7009 16.1675 2.26395 15.7014 2.08139C15.1901 1.88116 14.5972 2.02073 14.215 2.43421Z" fill="#969696"/>
<path d="M7.57601 2.89266C7.5249 2.55797 7.49019 2.08208 7.57498 1.52326C7.67782 0.845443 7.914 0.32562 8.09431 5.72205e-06C8.37839 0.182417 8.74183 0.458303 9.09487 0.860417C9.55963 1.38977 9.8152 1.92009 9.95566 2.28394C9.60234 1.81381 8.99443 1.62127 8.45967 1.80222C7.98922 1.9614 7.64614 2.38569 7.57604 2.89266H7.57601Z" fill="#969696"/>
<path d="M11.0476 16.2789C10.1419 17.3582 9.74094 18.4413 9.55896 19.0698C10.0422 18.2115 11.4078 16.0509 13.5099 15.8617C13.6558 15.8485 13.8075 15.8447 13.9648 15.8521C13.8618 15.5629 13.7631 15.2489 13.6747 14.9111C13.6222 14.7105 13.5772 14.5158 13.5384 14.328C12.951 14.6162 11.9536 15.1992 11.0476 16.2788V16.2789Z" fill="#969696"/>
<path d="M9.242 14.1157C9.0001 15.1968 8.83578 16.5326 8.95011 18.046C8.97948 18.4344 9.0249 18.8044 9.08172 19.1549C9.17204 18.8305 9.27481 18.4935 9.39197 18.146C9.55181 17.6719 9.72136 17.2288 9.89395 16.8175C9.67662 15.9169 9.45931 15.0163 9.242 14.1157V14.1157Z" fill="#969696"/>
<path d="M9.97707 11.2523C9.3471 10.1054 8.71714 8.95859 8.08716 7.81174C8.40817 8.40168 8.78131 8.72883 9.04657 8.91342C10.6938 10.0597 13.1478 9.16633 14.4212 8.70127C15.0632 8.46678 15.5586 8.22051 15.8456 8.06879C15.1427 9.17258 14.4398 10.2764 13.7369 11.3802C13.3138 11.5111 12.6626 11.6589 11.8611 11.6337C11.0446 11.6081 10.3938 11.413 9.97705 11.2523H9.97707Z" fill="#CECECE"/>
<path d="M10.9238 2.54298C10.9945 2.76858 11.0827 3.15913 11.0159 3.63537C10.9938 3.79373 10.9517 4.15672 10.7104 4.52237C10.5214 4.80879 10.3754 4.90093 10.0313 5.23819C9.8326 5.43294 9.56111 5.72085 9.26819 6.11026C9.59865 6.23816 9.98556 6.35399 10.4241 6.42607C11.9094 6.67024 13.1478 6.27483 13.8194 5.99416C13.9111 5.8736 14.0027 5.75305 14.0944 5.63247C13.4614 5.2812 12.6184 4.71 11.8319 3.80751C11.4471 3.366 11.1511 2.93159 10.9238 2.54296L10.9238 2.54298Z" fill="#CECECE"/>
<path d="M11.0227 14.0439C10.2809 14.5102 9.39066 14.1751 9.24189 14.1165C9.23574 14.4489 9.23605 14.7901 9.24391 15.1398C9.26635 16.1386 9.34728 17.0736 9.46409 17.9367C9.7765 17.0347 10.2157 16.018 10.8421 14.96C11.0762 14.5645 11.316 14.1979 11.5554 13.8593C11.5087 13.8032 11.462 13.7471 11.4153 13.6911C11.3164 13.8147 11.1882 13.9398 11.0227 14.0439Z" fill="#CECECE"/>
<path d="M9.55896 19.0692C9.76515 18.4123 10.2004 17.319 11.1319 16.2334C12.003 15.2183 12.9412 14.6372 13.5384 14.3275C13.4626 13.9455 13.4008 13.5188 13.3689 13.053C13.3523 12.8111 13.3452 12.5797 13.3453 12.3599C12.7555 12.9723 12.1054 13.7479 11.4897 14.7043C10.4369 16.3394 9.87352 17.8988 9.55896 19.0692V19.0692Z" fill="#CECECE"/>
<path d="M8.10015 5.72205e-06C7.99904 0.173775 7.89474 0.381577 7.80322 0.622729C7.65472 1.01397 7.58643 1.37044 7.55487 1.65309C7.57005 1.56944 7.65373 1.15513 8.01232 0.942589C8.42122 0.70024 9.0261 0.81599 9.42626 1.27177C9.23122 1.00077 8.96528 0.686854 8.60931 0.382402C8.43382 0.23229 8.26168 0.106041 8.10012 5.72205e-06L8.10015 5.72205e-06Z" fill="#D0D0D0"/>
<path d="M16.233 0.28669C16.324 0.46413 16.4171 0.679378 16.4929 0.930451C16.6176 1.3436 16.6527 1.71273 16.6565 1.99353C16.6503 1.92051 16.605 1.46834 16.24 1.22005C15.8474 0.952954 15.242 1.02857 14.8246 1.4524C15.0225 1.20904 15.2947 0.923562 15.6575 0.653163C15.8591 0.502886 16.0544 0.382784 16.233 0.28669H16.233Z" fill="#D0D0D0"/>
<path d="M13.7369 11.38C14.2644 10.5517 14.7919 9.72329 15.3193 8.89493C14.8522 9.40725 13.8968 10.3119 12.4028 10.8422C11.434 11.1862 10.5709 11.2548 9.97699 11.2521C10.42 11.4219 11.1227 11.629 12.003 11.635C12.7276 11.64 13.3242 11.5069 13.7369 11.38Z" fill="#969696"/>
</svg>
